<svg width="335" height="360" viewBox="0 0 335 360" fill="none" xmlns="http://www.w3.org/2000/svg">
<path d="M157.663 75.3871C157.663 108.003 131.222 134.445 98.6049 134.445C65.992 134.445 39.549 108.004 39.549 75.3871C39.549 42.7701 65.991 16.3301 98.6049 16.3301C131.221 16.3311 157.663 42.7711 157.663 75.3871Z" fill="#E74645"/>
<mask id="mask0_182_10" style="mask-type:luminance" maskUnits="userSpaceOnUse" x="39" y="16" width="119" height="119">
<path d="M157.663 75.3871C157.663 108.003 131.222 134.445 98.6049 134.445C65.992 134.445 39.549 108.004 39.549 75.3871C39.549 42.7701 65.991 16.3301 98.6049 16.3301C131.221 16.3311 157.663 42.7711 157.663 75.3871Z" fill="white"/>
</mask>
<g mask="url(#mask0_182_10)">
<path d="M105.639 103.025H94.021V109.936H105.639V103.025Z" fill="#F8BB94"/>
<path d="M101.379 109.012C98.943 108.236 96.902 106.709 96.594 104.033C96.553 103.665 96.597 103.332 96.692 103.025H94.022V109.936H105.64V109.07C104.212 109.427 102.722 109.44 101.379 109.012Z" fill="#DADADA"/>
<path d="M128.909 80.8576C128.909 83.7136 126.513 86.0306 123.554 86.0306C120.595 86.0306 118.196 83.7146 118.196 80.8576C118.196 78.0016 120.595 75.6836 123.554 75.6836C126.513 75.6836 128.909 78.0016 128.909 80.8576Z" fill="#F8BB94"/>
<path d="M124.244 77.9797C124.244 77.9797 124.373 77.9587 124.601 77.9667C124.833 77.9767 125.168 78.0097 125.552 78.1547C125.932 78.2947 126.38 78.5627 126.689 79.0277C126.768 79.1437 126.823 79.2737 126.89 79.4017C126.939 79.5347 126.976 79.6747 127.015 79.8147L127.061 80.2457C127.061 80.3867 127.049 80.5267 127.043 80.6707C127.025 80.9357 126.952 81.2197 126.872 81.4767C126.796 81.7357 126.674 81.9767 126.543 82.2027C126.28 82.6527 125.908 83.0057 125.539 83.1997C125.364 83.3117 125.176 83.3607 125.026 83.4147C124.859 83.4477 124.723 83.4787 124.601 83.4827C124.372 83.4897 124.244 83.4847 124.244 83.4847C124.244 83.4847 124.363 83.4357 124.572 83.3497C124.677 83.3107 124.788 83.2347 124.919 83.1697C125.041 83.0797 125.187 83.0007 125.313 82.8747C125.448 82.7607 125.575 82.6137 125.692 82.4557C125.814 82.2997 125.913 82.1117 126.009 81.9157C126.101 81.7187 126.167 81.5037 126.235 81.2837C126.296 81.0547 126.348 80.8397 126.357 80.5937L126.383 80.2567L126.359 79.9317C126.332 79.8297 126.311 79.7257 126.287 79.6237C126.248 79.5297 126.22 79.4297 126.168 79.3427C125.983 78.9827 125.679 78.7077 125.379 78.5097C125.072 78.3127 124.786 78.1847 124.578 78.1007C124.37 78.0177 124.244 77.9797 124.244 77.9797Z" fill="#DADADA"/>
<path d="M124.934 81.1124C124.934 81.6644 124.546 82.1144 124.069 82.1144C123.588 82.1144 123.201 81.6644 123.201 81.1124C123.201 80.5574 123.589 80.1094 124.069 80.1094C124.547 80.1094 124.934 80.5574 124.934 81.1124Z" fill="#DADADA"/>
<path d="M71.485 80.8576C71.485 83.7136 73.882 86.0306 76.839 86.0306C79.798 86.0306 82.194 83.7146 82.194 80.8576C82.194 78.0016 79.798 75.6836 76.839 75.6836C73.882 75.6836 71.485 78.0016 71.485 80.8576Z" fill="#F8BB94"/>
<path d="M76.148 77.9797C76.148 77.9797 76.017 77.9587 75.787 77.9667C75.556 77.9767 75.227 78.0097 74.84 78.1547C74.461 78.2947 74.013 78.5627 73.699 79.0277C73.626 79.1437 73.57 79.2737 73.501 79.4017C73.454 79.5347 73.414 79.6747 73.378 79.8147L73.335 80.2457C73.335 80.3867 73.347 80.5267 73.351 80.6707C73.368 80.9357 73.439 81.2197 73.517 81.4767C73.596 81.7357 73.717 81.9767 73.848 82.2027C74.114 82.6527 74.488 83.0057 74.852 83.1997C75.026 83.3117 75.218 83.3607 75.371 83.4147C75.532 83.4477 75.671 83.4787 75.788 83.4827C76.023 83.4897 76.149 83.4847 76.149 83.4847C76.149 83.4847 76.032 83.4357 75.823 83.3497C75.719 83.3107 75.606 83.2347 75.473 83.1697C75.353 83.0797 75.203 83.0007 75.08 82.8747C74.947 82.7607 74.82 82.6137 74.703 82.4557C74.578 82.2997 74.483 82.1117 74.389 81.9157C74.291 81.7187 74.223 81.5037 74.158 81.2837C74.099 81.0547 74.05 80.8397 74.039 80.5937L74.015 80.2567L74.037 79.9317C74.063 79.8297 74.085 79.7257 74.106 79.6237C74.15 79.5297 74.175 79.4297 74.223 79.3427C74.411 78.9827 74.719 78.7077 75.018 78.5097C75.319 78.3127 75.61 78.1847 75.818 78.1007C76.022 78.0177 76.148 77.9797 76.148 77.9797Z" fill="#DADADA"/>
<path d="M75.458 81.1124C75.458 81.6644 75.847 82.1144 76.327 82.1144C76.805 82.1144 77.192 81.6644 77.192 81.1124C77.192 80.5574 76.804 80.1094 76.327 80.1094C75.846 80.1094 75.458 80.5574 75.458 81.1124Z" fill="#DADADA"/>
<path d="M123.553 74.0367C123.553 91.6097 115.308 103.948 99.8289 103.948C84.3509 103.948 76.1029 91.6097 76.1029 74.0367C76.1029 56.4657 84.6629 42.2207 100.143 42.2207C115.62 42.2197 123.553 56.4647 123.553 74.0367Z" fill="#F8BB94"/>
<path d="M94.2559 109.65C94.2559 109.65 79.5199 111.597 74.2219 116.181C68.8249 120.853 67.2279 124.892 65.2839 134.12H99.5969H100.063H134.377C132.433 124.891 130.837 120.852 125.438 116.181C120.142 111.597 105.406 109.65 105.406 109.65H94.2559Z" fill="#F8BB94"/>
<path d="M89.801 110.409C89.801 110.409 79.519 111.598 74.221 116.182C68.824 120.854 67.227 124.893 65.283 134.121H99.596H100.062H134.376C132.432 124.892 130.863 120.821 125.437 116.182C120.96 112.357 110.9 110.621 110.9 110.621L105.405 109.65H94.255L89.801 110.409Z" fill="white"/>
<path d="M97.07 118.624C97.07 118.624 97.125 118.54 97.265 118.425C97.201 118.489 97.135 118.553 97.07 118.624L95.172 134.121H104.49L102.593 118.624L103.875 113.3C104.348 112.503 104.49 111.58 104.003 110.776C103.558 110.046 102.952 109.667 102.265 109.48C101.176 109.18 99.883 109.357 98.722 109.357C97.57 109.357 96.747 109.461 95.986 110.367C95.223 111.277 95.172 112.255 95.791 113.301L97.07 118.624Z" fill="#E74645"/>
<path d="M96.8569 117.797C96.8569 117.797 100.719 115.992 102.577 118.623C102.577 118.623 99.9749 117.143 97.0569 118.623L96.8569 117.797Z" fill="#C6C6C6"/>
<path d="M89.801 110.41C89.801 110.41 79.519 111.599 74.221 116.183C68.824 120.855 67.227 124.894 65.283 134.122H99.596H100.062H134.376C132.432 124.893 130.863 120.822 125.437 116.183C120.96 112.358 110.9 110.622 110.9 110.622L99.83 133.489L89.801 110.41Z" fill="#0D3953"/>
<path d="M89.937 110.566L99.8299 133.488L89.3149 126.694L91.681 122.631L79.9189 112.917C79.9189 112.917 86.59 110.334 89.937 110.566Z" fill="#031D2D"/>
<path d="M110.9 110.621L99.8319 133.488L110.346 126.694L107.98 122.631L119.745 112.917C119.745 112.917 114.251 110.389 110.9 110.621Z" fill="#031D2D"/>
<path d="M87.7369 110.605L96.6339 116.808L95.8909 113.706L87.7369 110.605Z" fill="#B2B2B2"/>
<path d="M112.767 110.717L103.015 116.935L103.866 113.322L112.767 110.717Z" fill="#B2B2B2"/>
<path d="M94.0209 107.604L87.7369 110.606L95.1719 115.047L100.372 109.308L94.0209 107.604Z" fill="white"/>
<path d="M93.9289 109.811C94.8539 108.97 95.9399 108.404 97.2169 108.461L94.0209 107.604L87.7369 110.606L93.3489 113.956C92.6459 112.602 92.6749 110.945 93.9289 109.811Z" fill="#DADADA"/>
<path d="M106.607 107.604L112.889 110.606L105.457 115.047L100.256 109.308L106.607 107.604Z" fill="white"/>
<path d="M106.699 109.811C105.774 108.97 104.69 108.404 103.412 108.461L106.607 107.604L112.889 110.606L107.28 113.956C107.979 112.602 107.95 110.945 106.699 109.811Z" fill="#DADADA"/>
<path d="M76.1789 78.3194L78.579 80.7244L79.0429 61.3724C79.0429 61.3724 79.2009 51.3244 89.8719 51.3244C89.8719 51.3244 98.6349 55.8794 109.786 52.1134C109.786 52.1134 119.766 50.5444 120.938 60.9014L120.856 81.1114L123.41 77.9644L123.553 75.3364C123.553 75.3364 125.068 66.8094 123.553 54.2834C123.553 54.2834 121.544 40.4184 109.013 38.0634C109.013 38.0634 88.5479 32.7974 79.9189 45.6814C79.9189 45.6814 73.3339 53.3694 75.0729 65.3974L76.1789 78.3194Z" fill="#956000"/>
</g>
<path d="M256.191 241.941C288.768 240.317 313.86 212.591 312.236 180.014C310.611 147.437 282.886 122.345 250.309 123.969C217.733 125.593 192.641 153.319 194.265 185.896C195.89 218.473 223.615 243.566 256.191 241.941Z" fill="#1DB2A8"/>
<mask id="mask1_182_10" style="mask-type:luminance" maskUnits="userSpaceOnUse" x="194" y="123" width="119" height="120">
<path d="M256.191 241.941C288.768 240.317 313.86 212.591 312.236 180.014C310.611 147.437 282.886 122.345 250.309 123.969C217.733 125.593 192.641 153.319 194.265 185.896C195.89 218.473 223.615 243.566 256.191 241.941Z" fill="white"/>
</mask>
<g mask="url(#mask1_182_10)">
<path d="M259.05 210.902H247.432V217.81H259.05V210.902Z" fill="#F8BB94"/>
<path d="M248.099 216.061C249.467 214.69 251.235 213.917 253.174 213.773C254.831 213.647 257.666 214.003 258.55 212.274C258.687 212.001 258.857 211.796 259.05 211.638V210.902H247.432V216.869C247.629 216.588 247.842 216.315 248.099 216.061Z" fill="#C6C6C6"/>
<path d="M282.32 188.732C282.32 191.587 279.92 193.906 276.965 193.906C274.007 193.906 271.609 191.588 271.609 188.732C271.609 185.877 274.007 183.559 276.965 183.559C279.92 183.559 282.32 185.877 282.32 188.732Z" fill="#F8BB94"/>
<path d="M277.654 185.854C277.654 185.854 277.784 185.834 278.014 185.842C278.246 185.851 278.578 185.884 278.963 186.03C279.341 186.169 279.788 186.437 280.103 186.904C280.179 187.017 280.236 187.15 280.303 187.277C280.35 187.41 280.391 187.55 280.426 187.688L280.469 188.119C280.471 188.261 280.458 188.401 280.455 188.545C280.435 188.811 280.363 189.093 280.284 189.351C280.206 189.611 280.083 189.853 279.954 190.078C279.688 190.528 279.319 190.881 278.949 191.076C278.774 191.187 278.586 191.236 278.432 191.288C278.271 191.321 278.129 191.353 278.016 191.358C277.781 191.364 277.653 191.36 277.653 191.36C277.653 191.36 277.775 191.311 277.983 191.225C278.083 191.185 278.196 191.109 278.332 191.045C278.453 190.956 278.597 190.875 278.723 190.75C278.856 190.634 278.985 190.489 279.102 190.332C279.222 190.173 279.322 189.985 279.417 189.79C279.509 189.595 279.581 189.378 279.645 189.157C279.706 188.93 279.755 188.715 279.766 188.469L279.793 188.132L279.767 187.807C279.742 187.705 279.72 187.601 279.699 187.5C279.656 187.405 279.631 187.303 279.582 187.216C279.394 186.858 279.089 186.583 278.786 186.384C278.482 186.188 278.193 186.06 277.988 185.976C277.782 185.892 277.654 185.854 277.654 185.854Z" fill="#DADADA"/>
<path d="M278.346 188.986C278.346 189.539 277.957 189.987 277.48 189.987C277.001 189.987 276.61 189.539 276.61 188.986C276.61 188.434 277.001 187.984 277.48 187.984C277.958 187.984 278.346 188.434 278.346 188.986Z" fill="#DADADA"/>
<path d="M224.895 188.732C224.895 191.587 227.291 193.906 230.249 193.906C233.205 193.906 235.604 191.588 235.604 188.732C235.604 185.877 233.206 183.559 230.249 183.559C227.291 183.559 224.895 185.877 224.895 188.732Z" fill="#F8BB94"/>
<path d="M229.558 185.854C229.558 185.854 229.43 185.834 229.2 185.842C228.968 185.851 228.635 185.884 228.251 186.03C227.872 186.169 227.425 186.437 227.11 186.904C227.034 187.017 226.979 187.15 226.911 187.277C226.863 187.41 226.824 187.55 226.787 187.688L226.744 188.119C226.744 188.261 226.755 188.401 226.763 188.545C226.781 188.811 226.849 189.093 226.928 189.351C227.007 189.611 227.132 189.853 227.259 190.078C227.526 190.528 227.896 190.881 228.265 191.076C228.439 191.187 228.631 191.236 228.781 191.288C228.946 191.321 229.083 191.353 229.201 191.358C229.431 191.364 229.559 191.36 229.559 191.36C229.559 191.36 229.438 191.311 229.229 191.225C229.127 191.185 229.016 191.109 228.881 191.045C228.764 190.956 228.617 190.875 228.49 190.75C228.356 190.634 228.234 190.489 228.112 190.332C227.993 190.173 227.888 189.985 227.796 189.79C227.703 189.595 227.633 189.378 227.568 189.157C227.508 188.93 227.459 188.715 227.446 188.469L227.422 188.132L227.443 187.807C227.473 187.705 227.494 187.601 227.515 187.5C227.556 187.405 227.584 187.303 227.632 187.216C227.82 186.858 228.126 186.583 228.429 186.384C228.728 186.188 229.021 186.06 229.225 185.976C229.433 185.892 229.558 185.854 229.558 185.854Z" fill="#DADADA"/>
<path d="M228.869 188.986C228.869 189.539 229.256 189.987 229.734 189.987C230.215 189.987 230.602 189.539 230.602 188.986C230.602 188.434 230.215 187.984 229.734 187.984C229.255 187.984 228.869 188.434 228.869 188.986Z" fill="#DADADA"/>
<path d="M276.965 181.914C276.965 199.487 268.72 211.825 253.241 211.825C237.761 211.825 229.517 199.487 229.517 181.914C229.517 164.343 238.076 150.098 253.554 150.098C269.035 150.097 276.965 164.342 276.965 181.914Z" fill="#F8BB94"/>
<path d="M247.666 217.523C247.666 217.523 232.931 219.472 227.633 224.056C222.236 228.729 220.639 232.766 218.693 241.996H253.01H253.476H287.789C285.844 232.766 284.249 228.728 278.849 224.056C273.554 219.472 258.818 217.523 258.818 217.523H247.666Z" fill="#F8BB94"/>
<path d="M264.52 218.544C264.52 218.544 273.552 219.475 278.847 224.059C284.247 228.732 285.842 232.769 287.787 241.999H253.474H253.008H218.692C220.638 232.769 222.235 228.731 227.632 224.059C232.93 219.475 241.997 218.535 241.997 218.535C241.997 218.535 240.033 231.136 253.735 231.031C253.735 231.031 265.052 231.473 264.52 218.544Z" fill="#1A7290"/>
<path d="M243.866 218.164C243.909 218.374 243.916 218.594 243.88 218.82C243.871 218.894 243.246 223.391 245.819 226.355C247.455 228.236 250.13 229.181 253.744 229.149C253.772 229.147 253.8 229.149 253.831 229.15C253.855 229.15 257.676 229.233 260.225 226.654C261.986 224.873 262.805 221.715 262.658 218.164L266.434 218.83C266.55 223.317 265.352 226.851 262.868 229.34C259.496 232.719 254.906 232.915 253.884 232.915C253.732 232.915 253.673 232.914 253.589 232.915C248.891 232.915 245.314 231.529 242.953 228.795C239.866 225.217 239.951 220.476 240.094 218.829L243.866 218.164Z" fill="#054153"/>
<path d="M228.869 172.247L229.723 186.587L231.82 187.18C229.976 164.032 242.172 158.734 242.172 158.734L245.584 144.244C235.162 143.995 230.602 152.514 230.602 152.514C230.602 152.514 226.744 156.429 228.869 172.247Z" fill="#732400"/>
<path d="M228.98 174.106C228.98 174.106 228.581 172.297 228.23 169.572C228.045 168.21 227.87 166.619 227.724 164.912C227.66 164.058 227.565 163.178 227.52 162.28C227.494 161.831 227.467 161.379 227.44 160.926L227.42 160.585L227.417 160.543L227.416 160.418L227.418 160.333L227.423 160.162L227.443 159.477C227.444 159.039 227.531 158.531 227.612 158.034C227.676 157.528 227.797 157.06 227.927 156.602C227.991 156.372 228.047 156.14 228.118 155.914L228.379 155.259C228.54 154.82 228.735 154.404 228.946 154.006C229.141 153.599 229.35 153.211 229.593 152.853C229.816 152.483 230.057 152.139 230.305 151.815C230.776 151.149 231.292 150.576 231.79 150.077C232.273 149.564 232.765 149.143 233.207 148.787C233.643 148.422 234.053 148.142 234.39 147.915C235.07 147.467 235.491 147.27 235.491 147.27C235.491 147.27 234.158 148.576 232.622 150.768C232.426 151.039 232.235 151.33 232.052 151.638C231.858 151.939 231.659 152.249 231.483 152.584C231.29 152.909 231.108 153.251 230.947 153.61C230.775 153.965 230.593 154.32 230.451 154.702C230.287 155.074 230.139 155.457 230.027 155.857C229.896 156.251 229.774 156.65 229.686 157.062C229.578 157.472 229.483 157.882 229.445 158.283C229.387 158.684 229.319 159.077 229.323 159.554L229.286 160.238L229.277 160.409L229.273 160.494L229.272 160.504C229.271 160.345 229.272 160.466 229.272 160.434L229.273 160.455L229.274 160.498L229.286 160.839C229.302 161.294 229.318 161.746 229.333 162.195C229.371 163.093 229.36 163.979 229.375 164.835C229.387 166.548 229.362 168.148 229.305 169.521C229.21 172.268 228.98 174.106 228.98 174.106Z" fill="#511800"/>
<path d="M277.434 175.057L276.58 189.399L274.483 189.989C276.61 159.113 265.101 158.598 265.101 158.598L260.718 147.052C271.142 146.804 275.7 155.325 275.7 155.325C275.7 155.325 279.561 159.239 277.434 175.057Z" fill="#732400"/>
<path d="M242.336 158.641C242.336 158.641 255.662 153.404 269.396 160.416L270.443 149.824C270.443 149.824 267.757 129.142 240.759 135.731C240.759 135.731 244.129 137.299 245.584 138.869C245.584 138.869 235.192 138.148 230.602 147.609C230.602 147.609 237.628 145.262 243.277 146.775C243.277 146.775 234.801 152.365 242.336 158.641Z" fill="#732400"/>
<path d="M270.442 149.825C270.442 149.825 270.291 149.253 269.918 148.305C269.553 147.356 268.955 146.032 268.069 144.57C267.624 143.839 267.081 143.093 266.487 142.331C265.874 141.581 265.164 140.855 264.398 140.146C263.608 139.463 262.749 138.813 261.814 138.25C260.885 137.678 259.887 137.185 258.842 136.802C258.324 136.6 257.804 136.401 257.265 136.257C256.737 136.082 256.195 135.958 255.654 135.845C254.575 135.619 253.495 135.426 252.434 135.341C251.906 135.272 251.383 135.253 250.868 135.229C250.353 135.208 249.85 135.156 249.357 135.174C248.372 135.176 247.436 135.177 246.57 135.234C245.703 135.261 244.909 135.339 244.202 135.395C243.494 135.446 242.875 135.506 242.368 135.572C241.35 135.685 240.759 135.733 240.759 135.733C240.759 135.733 241.31 135.531 242.291 135.206C242.781 135.039 243.378 134.846 244.081 134.685C244.778 134.506 245.567 134.293 246.448 134.16C246.887 134.085 247.343 133.992 247.82 133.924C248.3 133.874 248.796 133.822 249.306 133.77C249.816 133.704 250.345 133.706 250.886 133.678C251.427 133.642 251.981 133.654 252.545 133.687C253.109 133.711 253.685 133.725 254.265 133.805C254.846 133.867 255.436 133.925 256.02 134.064C256.609 134.175 257.2 134.3 257.783 134.48C258.373 134.628 258.951 134.831 259.525 135.048C260.668 135.492 261.766 136.06 262.785 136.714C263.819 137.349 264.708 138.158 265.539 138.947C267.158 140.586 268.301 142.419 269.024 144.071C269.758 145.723 270.111 147.184 270.279 148.207C270.449 149.232 270.442 149.825 270.442 149.825Z" fill="#511800"/>
</g>
<path d="M211.655 159.9C211.655 192.518 185.215 218.959 152.597 218.959C119.982 218.959 93.541 192.518 93.541 159.9C93.541 127.285 119.981 100.844 152.597 100.844C185.215 100.844 211.655 127.285 211.655 159.9Z" fill="#F9B233"/>
<mask id="mask2_182_10" style="mask-type:luminance" maskUnits="userSpaceOnUse" x="93" y="100" width="119" height="119">
<path d="M211.655 159.9C211.655 192.518 185.215 218.959 152.597 218.959C119.982 218.959 93.541 192.518 93.541 159.9C93.541 127.285 119.981 100.844 152.597 100.844C185.215 100.844 211.655 127.285 211.655 159.9Z" fill="white"/>
</mask>
<g mask="url(#mask2_182_10)">
<path d="M158.408 187.863H146.789V194.771H158.408V187.863Z" fill="#F8BB94"/>
<path d="M147.453 193.02C148.825 191.65 150.592 190.877 152.531 190.731C154.187 190.608 157.024 190.963 157.907 189.233C158.045 188.962 158.216 188.756 158.408 188.598V187.863H146.789V193.829C146.988 193.548 147.201 193.274 147.453 193.02Z" fill="#C6C6C6"/>
<path d="M181.677 165.694C181.677 168.548 179.281 170.865 176.322 170.865C173.363 170.865 170.963 168.549 170.963 165.694C170.963 162.837 173.363 160.52 176.322 160.52C179.281 160.52 181.677 162.836 181.677 165.694Z" fill="#F8BB94"/>
<path d="M177.012 162.814C177.012 162.814 177.141 162.795 177.369 162.803C177.6 162.812 177.936 162.846 178.319 162.991C178.699 163.13 179.149 163.398 179.46 163.866C179.539 163.978 179.593 164.111 179.658 164.238C179.707 164.371 179.746 164.509 179.781 164.65L179.829 165.08C179.829 165.223 179.813 165.362 179.81 165.505C179.792 165.772 179.72 166.054 179.641 166.311C179.564 166.572 179.441 166.815 179.311 167.038C179.045 167.488 178.676 167.84 178.305 168.036C178.131 168.147 177.946 168.195 177.789 168.248C177.628 168.282 177.49 168.314 177.368 168.318C177.139 168.324 177.011 168.32 177.011 168.32C177.011 168.32 177.13 168.269 177.338 168.185C177.44 168.146 177.556 168.07 177.687 168.005C177.808 167.916 177.953 167.834 178.08 167.709C178.215 167.595 178.341 167.449 178.459 167.292C178.581 167.134 178.679 166.945 178.773 166.75C178.867 166.555 178.939 166.339 179.002 166.117C179.063 165.891 179.111 165.675 179.124 165.429L179.149 165.092L179.129 164.767C179.098 164.665 179.081 164.561 179.057 164.46C179.018 164.365 178.984 164.263 178.938 164.176C178.75 163.817 178.446 163.543 178.146 163.345C177.839 163.148 177.549 163.02 177.345 162.936C177.139 162.852 177.012 162.814 177.012 162.814Z" fill="#DADADA"/>
<path d="M177.704 165.946C177.704 166.499 177.315 166.949 176.838 166.949C176.359 166.949 175.969 166.499 175.969 165.946C175.969 165.393 176.359 164.943 176.838 164.943C177.315 164.943 177.704 165.393 177.704 165.946Z" fill="#DADADA"/>
<path d="M124.252 165.694C124.252 168.548 126.651 170.865 129.607 170.865C132.565 170.865 134.963 168.549 134.963 165.694C134.963 162.837 132.565 160.52 129.607 160.52C126.651 160.52 124.252 162.836 124.252 165.694Z" fill="#F8BB94"/>
<path d="M128.917 162.814C128.917 162.814 128.787 162.795 128.556 162.803C128.326 162.812 127.995 162.846 127.608 162.991C127.23 163.13 126.783 163.398 126.471 163.866C126.391 163.978 126.338 164.111 126.272 164.238C126.223 164.371 126.185 164.509 126.146 164.65L126.104 165.08C126.104 165.223 126.113 165.362 126.119 165.505C126.14 165.772 126.211 166.054 126.287 166.311C126.365 166.572 126.489 166.815 126.617 167.038C126.883 167.488 127.255 167.84 127.623 168.036C127.797 168.147 127.985 168.195 128.14 168.248C128.302 168.282 128.441 168.314 128.557 168.318C128.79 168.324 128.918 168.32 128.918 168.32C128.918 168.32 128.799 168.269 128.589 168.185C128.488 168.146 128.375 168.07 128.239 168.005C128.121 167.916 127.974 167.834 127.848 167.709C127.715 167.595 127.588 167.449 127.471 167.292C127.349 167.134 127.249 166.945 127.157 166.75C127.062 166.555 126.991 166.339 126.925 166.117C126.867 165.891 126.817 165.675 126.81 165.429L126.784 165.092L126.805 164.767C126.831 164.665 126.852 164.561 126.873 164.46C126.918 164.365 126.943 164.263 126.991 164.176C127.179 163.817 127.486 163.543 127.786 163.345C128.09 163.148 128.38 163.02 128.586 162.936C128.79 162.852 128.917 162.814 128.917 162.814Z" fill="#DADADA"/>
<path d="M128.224 165.946C128.224 166.499 128.615 166.949 129.092 166.949C129.572 166.949 129.96 166.499 129.96 165.946C129.96 165.393 129.572 164.943 129.092 164.943C128.615 164.943 128.224 165.393 128.224 165.946Z" fill="#DADADA"/>
<path d="M176.323 158.873C176.323 176.446 168.077 188.784 152.597 188.784C137.12 188.784 128.873 176.446 128.873 158.873C128.873 141.302 137.433 127.055 152.914 127.055C168.394 127.054 176.323 141.301 176.323 158.873Z" fill="#F8BB94"/>
<path d="M147.022 194.484C147.022 194.484 132.286 196.432 126.99 201.016C121.593 205.687 119.996 209.727 118.051 218.957H152.365H152.831H187.145C185.201 209.727 183.605 205.686 178.207 201.016C172.908 196.432 158.172 194.484 158.172 194.484H147.022Z" fill="#F8BB94"/>
<path d="M141.357 195.494C141.357 195.494 132.286 196.433 126.99 201.017C121.593 205.688 119.996 209.728 118.051 218.958H152.365H152.831H187.145C185.201 209.728 183.605 205.687 178.207 201.017C172.908 196.433 163.876 195.502 163.876 195.502L152.597 206.721L141.357 195.494Z" fill="#373C47"/>
<path d="M128.224 149.209L129.081 163.549L131.178 164.141C129.334 140.994 141.529 135.694 141.529 135.694L144.941 121.203C134.518 120.956 129.961 129.475 129.961 129.475C129.961 129.475 126.103 133.39 128.224 149.209Z" fill="#432918"/>
<path d="M128.337 151.064C128.337 151.064 127.906 149.256 127.533 146.533C127.336 145.171 127.151 143.581 126.998 141.875C126.931 141.021 126.832 140.141 126.786 139.243C126.759 138.795 126.732 138.343 126.705 137.888L126.685 137.548L126.682 137.505L126.68 137.373L126.683 137.288L126.688 137.117L126.707 136.433C126.708 135.997 126.796 135.483 126.878 134.981C126.943 134.47 127.066 133.999 127.198 133.539C127.263 133.307 127.318 133.074 127.391 132.848L127.655 132.19C127.819 131.749 128.017 131.332 128.23 130.932C128.427 130.524 128.638 130.134 128.885 129.776C129.111 129.406 129.355 129.062 129.606 128.737C130.084 128.071 130.605 127.499 131.109 127.003C131.598 126.492 132.094 126.075 132.542 125.722C132.981 125.36 133.397 125.084 133.738 124.861C134.425 124.42 134.85 124.23 134.85 124.23C134.85 124.23 133.536 125.562 132.024 127.764C131.831 128.036 131.643 128.327 131.463 128.637C131.272 128.939 131.076 129.249 130.902 129.584C130.713 129.909 130.533 130.25 130.376 130.61C130.207 130.964 130.026 131.319 129.887 131.698C129.726 132.069 129.58 132.45 129.47 132.848C129.342 133.241 129.221 133.637 129.135 134.046C129.029 134.453 128.934 134.86 128.898 135.256C128.841 135.652 128.773 136.039 128.777 136.519L128.74 137.203L128.731 137.373L128.727 137.458L128.726 137.469C128.726 137.492 128.725 137.306 128.726 137.39L128.727 137.411L128.728 137.453L128.74 137.794C128.755 138.248 128.77 138.701 128.785 139.15C128.822 140.047 128.805 140.934 128.818 141.79C128.824 143.503 128.788 145.104 128.718 146.478C128.598 149.224 128.337 151.064 128.337 151.064Z" fill="#2A1807"/>
<path d="M140.119 136.54C140.119 136.54 147.445 149.181 170.964 148.529C170.964 148.529 166.564 143.33 168.756 140.856C168.756 140.856 145.98 130.025 140.119 136.54Z" fill="#C6C6C6"/>
<path d="M176.793 152.015L175.936 166.358L173.841 166.949C175.684 143.801 163.486 138.505 163.486 138.505L160.078 124.013C170.5 123.764 175.058 132.283 175.058 132.283C175.058 132.283 178.916 136.199 176.793 152.015Z" fill="#432918"/>
<path d="M136.263 123.33C136.263 123.33 139.647 116.443 151.781 114.56C151.781 114.56 171.98 112.129 178.42 126.146C178.42 126.146 181.678 132.893 180.501 144.765C180.501 144.765 179.282 139.423 175.969 137.648C175.969 137.648 175.414 143.964 166.695 140.08C166.695 140.08 165.309 142.669 168.352 147.276C168.352 147.276 140.119 147.275 136.263 123.33Z" fill="#432918"/>
<path d="M136.263 123.329C136.263 123.329 136.529 122.589 137.327 121.468C137.736 120.919 138.251 120.251 138.947 119.586C139.277 119.232 139.68 118.917 140.081 118.548C140.505 118.215 140.956 117.861 141.448 117.528C142.436 116.87 143.547 116.188 144.805 115.658C146.045 115.084 147.409 114.6 148.847 114.222C149.56 113.997 150.307 113.889 151.053 113.716L151.616 113.597L152.246 113.521C152.635 113.483 153.023 113.459 153.413 113.438C154.97 113.357 156.55 113.365 158.128 113.464C159.705 113.583 161.276 113.793 162.809 114.101C164.343 114.398 165.823 114.854 167.222 115.377C168.624 115.898 169.924 116.553 171.096 117.268C172.282 117.964 173.293 118.797 174.169 119.606C175.046 120.419 175.75 121.263 176.307 122.048C176.87 122.829 177.29 123.555 177.586 124.173C177.914 124.774 178.083 125.287 178.218 125.625C178.348 125.963 178.418 126.144 178.418 126.144C178.418 126.144 178.314 125.981 178.116 125.675C177.922 125.369 177.642 124.921 177.234 124.388C176.85 123.842 176.322 123.223 175.694 122.553C175.373 122.223 175.037 121.869 174.641 121.541C174.266 121.191 173.845 120.855 173.4 120.515C172.496 119.854 171.483 119.188 170.337 118.617C169.195 118.04 167.941 117.54 166.615 117.099C165.289 116.659 163.873 116.345 162.427 116.066C160.979 115.797 159.485 115.625 157.985 115.531C156.488 115.413 154.978 115.383 153.503 115.436C153.136 115.455 152.771 115.474 152.407 115.492L151.917 115.525L151.38 115.613C150.67 115.744 149.952 115.811 149.275 115.992C147.908 116.302 146.589 116.637 145.385 117.087C145.083 117.197 144.785 117.307 144.491 117.414C144.205 117.538 143.924 117.661 143.646 117.783C143.079 118.003 142.571 118.291 142.065 118.54C141.078 119.08 140.197 119.628 139.462 120.184C138.719 120.73 138.12 121.271 137.638 121.734C137.172 122.209 136.809 122.597 136.591 122.883C136.365 123.163 136.263 123.329 136.263 123.329Z" fill="#2A1807"/>
</g>
<path d="M118.113 182.942C118.113 215.558 91.674 241.999 59.054 241.999C26.44 241.999 0 215.559 0 182.942C0 150.328 26.439 123.883 59.054 123.883C91.673 123.883 118.113 150.328 118.113 182.942Z" fill="#6EBEBF"/>
<mask id="mask3_182_10" style="mask-type:luminance" maskUnits="userSpaceOnUse" x="0" y="123" width="119" height="119">
<path d="M118.113 182.942C118.113 215.558 91.674 241.999 59.054 241.999C26.44 241.999 0 215.559 0 182.942C0 150.328 26.439 123.883 59.054 123.883C91.673 123.883 118.113 150.328 118.113 182.942Z" fill="white"/>
</mask>
<g mask="url(#mask3_182_10)">
<path d="M85.771 190.079C85.771 190.079 78.13 215.905 64.631 217.527V211.641C64.631 211.641 78.468 185.843 85.771 190.079Z" fill="#432918"/>
<path d="M64.8619 210.904H53.2469V217.815H64.8619V210.904Z" fill="#F8BB94"/>
<path d="M53.909 216.063C55.284 214.692 57.0499 213.919 58.9869 213.775C60.6469 213.649 63.4799 214.006 64.3649 212.276C64.4989 212.005 64.6749 211.798 64.8619 211.641V210.904H53.2469V216.873C53.4429 216.591 53.657 216.317 53.909 216.063Z" fill="#C6C6C6"/>
<path d="M88.1339 188.736C88.1339 191.591 85.7359 193.908 82.7769 193.908C79.8199 193.908 77.424 191.591 77.424 188.736C77.424 185.88 79.8199 183.562 82.7769 183.562C85.7359 183.562 88.1339 185.879 88.1339 188.736Z" fill="#F8BB94"/>
<path d="M83.47 185.856C83.47 185.856 83.6 185.836 83.83 185.844C84.06 185.855 84.392 185.886 84.775 186.032C85.157 186.174 85.604 186.441 85.919 186.908C85.992 187.02 86.049 187.152 86.112 187.279C86.164 187.413 86.202 187.552 86.24 187.692L86.283 188.123C86.288 188.263 86.274 188.405 86.264 188.547C86.247 188.815 86.176 189.097 86.098 189.352C86.022 189.614 85.898 189.855 85.77 190.08C85.5 190.529 85.132 190.883 84.764 191.077C84.59 191.191 84.4 191.237 84.247 191.291C84.082 191.322 83.946 191.357 83.829 191.361C83.594 191.365 83.469 191.361 83.469 191.361C83.469 191.361 83.588 191.312 83.795 191.226C83.898 191.186 84.012 191.11 84.145 191.046C84.262 190.957 84.408 190.876 84.538 190.751C84.668 190.637 84.795 190.491 84.915 190.333C85.034 190.176 85.134 189.986 85.229 189.793C85.327 189.598 85.394 189.381 85.458 189.158C85.522 188.931 85.568 188.716 85.58 188.472L85.606 188.133L85.582 187.807C85.555 187.705 85.535 187.599 85.511 187.5C85.469 187.405 85.444 187.306 85.395 187.216C85.206 186.859 84.9 186.584 84.598 186.384C84.297 186.188 84.007 186.06 83.801 185.976C83.595 185.894 83.47 185.856 83.47 185.856Z" fill="#DADADA"/>
<path d="M84.16 188.989C84.16 189.543 83.774 189.992 83.292 189.992C82.813 189.992 82.427 189.543 82.427 188.989C82.427 188.437 82.813 187.988 83.292 187.988C83.774 187.988 84.16 188.437 84.16 188.989Z" fill="#DADADA"/>
<path d="M30.708 188.736C30.708 191.591 33.105 193.908 36.062 193.908C39.021 193.908 41.417 191.591 41.417 188.736C41.417 185.88 39.021 183.562 36.062 183.562C33.105 183.562 30.708 185.879 30.708 188.736Z" fill="#F8BB94"/>
<path d="M35.376 185.856C35.376 185.856 35.243 185.836 35.013 185.844C34.783 185.855 34.451 185.886 34.068 186.032C33.687 186.174 33.239 186.441 32.927 186.908C32.851 187.02 32.793 187.152 32.726 187.279C32.68 187.413 32.64 187.552 32.604 187.692L32.558 188.123C32.558 188.263 32.567 188.405 32.575 188.547C32.596 188.815 32.665 189.097 32.745 189.352C32.821 189.614 32.946 189.855 33.076 190.08C33.342 190.529 33.711 190.883 34.082 191.077C34.256 191.191 34.441 191.237 34.595 191.291C34.759 191.322 34.899 191.357 35.014 191.361C35.246 191.365 35.377 191.361 35.377 191.361C35.377 191.361 35.254 191.312 35.046 191.226C34.943 191.186 34.829 191.11 34.698 191.046C34.576 190.957 34.432 190.876 34.307 190.751C34.171 190.637 34.046 190.491 33.928 190.333C33.806 190.176 33.705 189.986 33.611 189.793C33.516 189.598 33.448 189.381 33.383 189.158C33.32 188.931 33.272 188.716 33.263 188.472L33.237 188.133L33.258 187.807C33.289 187.705 33.309 187.599 33.331 187.5C33.373 187.405 33.397 187.306 33.449 187.216C33.635 186.859 33.943 186.584 34.242 186.384C34.545 186.188 34.835 186.06 35.039 185.976C35.246 185.894 35.376 185.856 35.376 185.856Z" fill="#DADADA"/>
<path d="M34.678 188.989C34.678 189.543 35.069 189.992 35.549 189.992C36.027 189.992 36.417 189.543 36.417 188.989C36.417 188.437 36.026 187.988 35.549 187.988C35.069 187.988 34.678 188.437 34.678 188.989Z" fill="#DADADA"/>
<path d="M82.7769 181.916C82.7769 199.487 74.5359 211.826 59.0539 211.826C43.5749 211.826 35.3309 199.487 35.3309 181.916C35.3309 164.343 43.8919 150.098 59.3699 150.098C74.8479 150.097 82.7769 164.342 82.7769 181.916Z" fill="#F8BB94"/>
<path d="M53.478 217.527C53.478 217.527 38.745 219.475 33.449 224.058C28.049 228.731 26.451 232.768 24.507 241.998H58.823H59.287H93.602C91.659 232.768 90.0619 228.73 84.6619 224.058C79.3649 219.475 64.632 217.527 64.632 217.527H53.478Z" fill="#F8BB94"/>
<path d="M64.631 217.527C64.631 217.527 72.225 218.53 78.468 220.791C78.468 220.791 74.78 229.722 78.468 241.999H40.413C40.413 241.999 43.038 234.506 41.418 220.191C47.237 218.352 53.479 217.527 53.479 217.527L58.824 227.916L64.631 217.527Z" fill="#E74645"/>
<path d="M83.6519 183.638C75.6539 181.682 71.7729 171.742 71.7729 171.742C71.3299 174.252 72.0329 176.555 72.0329 176.555C57.6229 169.859 48.7819 159.19 48.7819 159.19C41.4179 150.098 53.2469 144.127 53.2469 144.127C72.2179 137.432 80.3759 150.099 80.3759 150.099C80.3759 150.099 93.8539 162.286 87.2199 185.845C87.2189 185.843 86.2839 184.279 83.6519 183.638Z" fill="#432918"/>
<path d="M50.965 149.518C50.965 149.518 33.965 150.098 30.707 176.972C30.707 176.972 26.011 226.137 48.066 234.506C48.066 234.506 46.618 220.592 53.246 217.558V211.183C53.246 211.183 37.171 208.355 37.38 187.328C37.38 187.328 37.484 163.061 49.829 158.458L50.965 149.518Z" fill="#432918"/>
<path d="M84.57 193.708C84.57 194.697 83.766 195.498 82.777 195.498C81.789 195.498 80.991 194.697 80.991 193.708C80.991 192.72 81.789 191.918 82.777 191.918C83.766 191.918 84.57 192.719 84.57 193.708Z" fill="white"/>
</g>
<path d="M208.329 134.444C240.946 134.444 267.387 108.003 267.387 75.3861C267.387 42.7693 240.946 16.3281 208.329 16.3281C175.712 16.3281 149.271 42.7693 149.271 75.3861C149.271 108.003 175.712 134.444 208.329 134.444Z" fill="#F08046"/>
<mask id="mask4_182_10" style="mask-type:luminance" maskUnits="userSpaceOnUse" x="149" y="16" width="119" height="119">
<path d="M208.329 134.444C240.946 134.444 267.387 108.003 267.387 75.3861C267.387 42.7693 240.946 16.3281 208.329 16.3281C175.712 16.3281 149.271 42.7693 149.271 75.3861C149.271 108.003 175.712 134.444 208.329 134.444Z" fill="white"/>
</mask>
<g mask="url(#mask4_182_10)">
<path d="M214.138 103.348H202.521V110.259H214.138V103.348Z" fill="#F8BB94"/>
<path d="M203.186 108.508C204.556 107.136 206.322 106.363 208.261 106.219C209.921 106.094 212.755 106.45 213.637 104.72C213.776 104.449 213.948 104.243 214.138 104.085V103.348H202.521V109.317C202.716 109.036 202.933 108.761 203.186 108.508Z" fill="#C6C6C6"/>
<path d="M237.409 81.1789C237.409 84.0339 235.013 86.3509 232.055 86.3509C229.098 86.3509 226.7 84.0349 226.7 81.1789C226.7 78.3229 229.098 76.0059 232.055 76.0059C235.012 76.0059 237.409 78.3229 237.409 81.1789Z" fill="#F8BB94"/>
<path d="M232.745 78.299C232.745 78.299 232.873 78.279 233.104 78.287C233.333 78.298 233.667 78.33 234.05 78.475C234.432 78.617 234.883 78.884 235.19 79.351C235.268 79.464 235.325 79.5951 235.39 79.7221C235.438 79.8561 235.477 79.994 235.517 80.135L235.56 80.566C235.56 80.707 235.549 80.848 235.542 80.99C235.524 81.258 235.451 81.54 235.373 81.795C235.297 82.057 235.173 82.298 235.042 82.524C234.776 82.972 234.407 83.327 234.038 83.52C233.864 83.634 233.675 83.68 233.523 83.734C233.357 83.766 233.219 83.7991 233.107 83.8041C232.872 83.8081 232.744 83.8041 232.744 83.8041C232.744 83.8041 232.862 83.755 233.072 83.669C233.174 83.63 233.287 83.553 233.42 83.489C233.54 83.4 233.686 83.3191 233.811 83.1941C233.947 83.0801 234.072 82.935 234.189 82.776C234.311 82.619 234.413 82.4291 234.505 82.2361C234.598 82.0411 234.67 81.824 234.734 81.601C234.795 81.375 234.844 81.159 234.855 80.915L234.883 80.576L234.858 80.2501C234.829 80.1471 234.812 80.0421 234.788 79.9431C234.747 79.8481 234.721 79.749 234.669 79.659C234.481 79.303 234.178 79.027 233.877 78.828C233.572 78.631 233.282 78.503 233.077 78.419C232.873 78.337 232.745 78.299 232.745 78.299Z" fill="#DADADA"/>
<path d="M233.437 81.4326C233.437 81.9876 233.046 82.4356 232.567 82.4356C232.088 82.4356 231.698 81.9876 231.698 81.4326C231.698 80.8806 232.089 80.4316 232.567 80.4316C233.047 80.4316 233.437 80.8816 233.437 81.4326Z" fill="#DADADA"/>
<path d="M179.985 81.1789C179.985 84.0339 182.381 86.3509 185.339 86.3509C188.298 86.3509 190.694 84.0349 190.694 81.1789C190.694 78.3229 188.298 76.0059 185.339 76.0059C182.381 76.0059 179.985 78.3229 179.985 81.1789Z" fill="#F8BB94"/>
<path d="M184.647 78.299C184.647 78.299 184.517 78.279 184.287 78.287C184.058 78.298 183.724 78.33 183.341 78.475C182.96 78.617 182.513 78.884 182.2 79.351C182.125 79.464 182.068 79.5951 181.998 79.7221C181.954 79.8561 181.914 79.994 181.878 80.135L181.834 80.566C181.834 80.707 181.843 80.848 181.851 80.99C181.869 81.258 181.939 81.54 182.019 81.795C182.095 82.057 182.221 82.298 182.348 82.524C182.617 82.972 182.989 83.327 183.352 83.52C183.528 83.634 183.717 83.68 183.87 83.734C184.033 83.766 184.172 83.7991 184.288 83.8041C184.523 83.8081 184.648 83.8041 184.648 83.8041C184.648 83.8041 184.528 83.755 184.32 83.669C184.216 83.63 184.105 83.553 183.972 83.489C183.853 83.4 183.706 83.3191 183.581 83.1941C183.443 83.0801 183.321 82.935 183.202 82.776C183.082 82.619 182.979 82.4291 182.887 82.2361C182.79 82.0411 182.722 81.824 182.657 81.601C182.598 81.375 182.549 81.159 182.539 80.915L182.514 80.576L182.535 80.2501C182.565 80.1471 182.581 80.0421 182.605 79.9431C182.647 79.8481 182.671 79.749 182.722 79.659C182.909 79.303 183.218 79.027 183.517 78.828C183.818 78.631 184.109 78.503 184.315 78.419C184.522 78.337 184.647 78.299 184.647 78.299Z" fill="#DADADA"/>
<path d="M183.956 81.4326C183.956 81.9876 184.346 82.4356 184.824 82.4356C185.304 82.4356 185.691 81.9876 185.691 81.4326C185.691 80.8806 185.304 80.4316 184.824 80.4316C184.345 80.4316 183.956 80.8816 183.956 81.4326Z" fill="#DADADA"/>
<path d="M232.054 74.361C232.054 91.932 223.805 104.271 208.331 104.271C192.851 104.271 184.605 91.932 184.605 74.361C184.605 56.788 193.163 42.543 208.642 42.543C224.126 42.543 232.054 56.788 232.054 74.361Z" fill="#F8BB94"/>
<path d="M202.756 109.971C202.756 109.971 188.019 111.92 182.722 116.502C177.323 121.175 175.729 125.212 173.783 134.443H208.097H208.563H242.877C240.932 125.212 239.335 121.175 233.939 116.502C228.64 111.92 213.906 109.971 213.906 109.971H202.756Z" fill="#F8BB94"/>
<path d="M194.922 111.472C194.922 111.472 196.512 110.798 190.693 112.636C192.294 127.118 189.687 134.445 189.687 134.445H227.742C224.055 122.167 227.742 113.237 227.742 113.237C224.223 111.963 224.223 111.963 224.223 111.963C224.223 111.963 223.898 129.6 208.096 128.375C208.096 128.375 194.403 129.718 194.922 111.472Z" fill="#00B1C3"/>
<path d="M200.24 41.9609C200.24 41.9609 183.239 42.5409 179.985 69.4149C179.985 69.4149 176.814 91.5509 187.542 110.426C187.542 110.426 194.711 109.317 202.522 110.001V103.626C202.522 103.626 186.449 100.798 186.658 79.7709C186.658 79.7709 186.763 55.5029 199.102 50.9009L200.24 41.9609Z" fill="#732400"/>
<path d="M216.42 41.9611C216.42 41.9611 235.696 41.6621 238.951 68.5371C238.951 68.5371 240.623 86.5161 229.119 110.426C229.119 110.426 221.945 109.317 214.139 110.001V103.626C214.139 103.626 230.209 100.798 230.004 79.7711C230.004 79.7711 229.901 55.5031 217.555 50.9011L216.42 41.9611Z" fill="#732400"/>
<path d="M193.411 48.7692C193.411 48.7692 204.369 66.2352 227.205 64.5642L231.698 76.0062L236.15 77.8532C236.15 77.8532 242.877 76.0062 235.881 48.7692C235.881 48.7692 228.649 28.8552 202.521 34.7842C202.521 34.7842 189.505 37.1613 193.411 48.7692Z" fill="#732400"/>
</g>
<path d="M211.654 263.01C211.654 295.624 185.213 322.066 152.597 322.066C119.982 322.066 93.5389 295.625 93.5389 263.01C93.5389 230.394 119.981 203.951 152.597 203.951C185.213 203.952 211.654 230.394 211.654 263.01Z" fill="#E74645"/>
<mask id="mask5_182_10" style="mask-type:luminance" maskUnits="userSpaceOnUse" x="93" y="203" width="119" height="120">
<path d="M211.654 263.01C211.654 295.624 185.213 322.066 152.597 322.066C119.982 322.066 93.5389 295.625 93.5389 263.01C93.5389 230.394 119.981 203.951 152.597 203.951C185.213 203.952 211.654 230.394 211.654 263.01Z" fill="white"/>
</mask>
<g mask="url(#mask5_182_10)">
<path d="M158.406 290.971H146.792V297.883H158.406V290.971Z" fill="#F8BB94"/>
<path d="M147.455 296.132C148.825 294.759 150.592 293.986 152.533 293.843C154.19 293.718 157.024 294.073 157.906 292.343C158.045 292.071 158.216 291.867 158.406 291.708V290.971H146.792V296.941C146.988 296.659 147.201 296.386 147.455 296.132Z" fill="#C6C6C6"/>
<path d="M181.677 268.801C181.677 271.656 179.28 273.973 176.322 273.973C173.363 273.973 170.963 271.657 170.963 268.801C170.963 265.944 173.363 263.629 176.322 263.629C179.28 263.629 181.677 265.945 181.677 268.801Z" fill="#F8BB94"/>
<path d="M177.014 265.923C177.014 265.923 177.142 265.903 177.372 265.91C177.601 265.92 177.935 265.953 178.318 266.096C178.701 266.238 179.148 266.505 179.458 266.972C179.536 267.085 179.593 267.216 179.658 267.343C179.705 267.477 179.745 267.617 179.781 267.756L179.827 268.187C179.827 268.329 179.816 268.469 179.81 268.613C179.792 268.879 179.718 269.161 179.641 269.416C179.564 269.679 179.439 269.919 179.31 270.145C179.044 270.593 178.674 270.948 178.305 271.141C178.13 271.255 177.942 271.301 177.791 271.355C177.624 271.387 177.49 271.421 177.371 271.425C177.141 271.429 177.013 271.426 177.013 271.426C177.013 271.426 177.13 271.377 177.338 271.29C177.442 271.252 177.555 271.174 177.687 271.11C177.808 271.021 177.953 270.942 178.079 270.815C178.215 270.701 178.34 270.556 178.457 270.397C178.579 270.24 178.68 270.052 178.773 269.857C178.869 269.662 178.937 269.445 179.002 269.223C179.06 268.997 179.111 268.78 179.122 268.537L179.148 268.198L179.127 267.872C179.097 267.769 179.081 267.666 179.056 267.565C179.014 267.47 178.987 267.371 178.938 267.283C178.75 266.925 178.446 266.649 178.145 266.45C177.839 266.255 177.549 266.126 177.345 266.042C177.141 265.961 177.014 265.923 177.014 265.923Z" fill="#DADADA"/>
<path d="M177.701 269.056C177.701 269.609 177.315 270.057 176.836 270.057C176.359 270.057 175.968 269.609 175.968 269.056C175.968 268.502 176.359 268.053 176.836 268.053C177.315 268.053 177.701 268.503 177.701 269.056Z" fill="#DADADA"/>
<path d="M124.254 268.801C124.254 271.656 126.65 273.973 129.607 273.973C132.566 273.973 134.962 271.657 134.962 268.801C134.962 265.944 132.566 263.629 129.607 263.629C126.649 263.629 124.254 265.945 124.254 268.801Z" fill="#F8BB94"/>
<path d="M128.916 265.923C128.916 265.923 128.786 265.903 128.556 265.91C128.327 265.92 127.993 265.953 127.61 266.096C127.228 266.238 126.782 266.505 126.468 266.972C126.392 267.085 126.337 267.216 126.272 267.343C126.223 267.477 126.185 267.617 126.146 267.756L126.102 268.187C126.102 268.329 126.112 268.469 126.121 268.613C126.138 268.879 126.211 269.161 126.287 269.416C126.363 269.679 126.49 269.919 126.618 270.145C126.884 270.593 127.255 270.948 127.623 271.141C127.795 271.255 127.985 271.301 128.139 271.355C128.302 271.387 128.441 271.421 128.557 271.425C128.788 271.429 128.917 271.426 128.917 271.426C128.917 271.426 128.796 271.377 128.589 271.29C128.488 271.252 128.372 271.174 128.24 271.11C128.121 271.021 127.974 270.942 127.849 270.815C127.715 270.701 127.59 270.556 127.471 270.397C127.35 270.24 127.251 270.052 127.155 269.857C127.059 269.662 126.991 269.445 126.925 269.223C126.864 268.997 126.817 268.78 126.808 268.537L126.783 268.198L126.803 267.872C126.832 267.769 126.851 267.666 126.873 267.565C126.916 267.47 126.942 267.371 126.992 267.283C127.18 266.925 127.486 266.649 127.786 266.45C128.088 266.255 128.378 266.126 128.584 266.042C128.79 265.961 128.916 265.923 128.916 265.923Z" fill="#DADADA"/>
<path d="M128.224 269.056C128.224 269.609 128.615 270.057 129.093 270.057C129.572 270.057 129.958 269.609 129.958 269.056C129.958 268.502 129.572 268.053 129.093 268.053C128.615 268.053 128.224 268.503 128.224 269.056Z" fill="#DADADA"/>
<path d="M176.323 261.983C176.323 279.556 168.08 291.895 152.597 291.895C137.118 291.895 128.873 279.556 128.873 261.983C128.873 244.411 137.431 230.166 152.911 230.166C168.391 230.166 176.323 244.411 176.323 261.983Z" fill="#F8BB94"/>
<path d="M147.024 297.594C147.024 297.594 132.286 299.543 126.991 304.125C121.593 308.799 119.993 312.835 118.051 322.066H152.365H152.831H187.145C185.2 312.835 183.603 308.798 178.206 304.125C172.908 299.543 158.173 297.594 158.173 297.594H147.024Z" fill="#F8BB94"/>
<path d="M165.322 298.933C169.853 299.983 175.374 301.678 178.206 304.125C183.604 308.799 185.2 312.835 187.145 322.066H152.831H152.365H118.051C119.993 312.835 121.593 308.798 126.991 304.125C129.901 301.608 135.659 299.885 140.255 298.844L152.598 312.148L165.322 298.933Z" fill="#881719"/>
<path d="M144.509 229.586C144.509 229.586 127.508 230.165 124.253 257.039C124.253 257.039 123.618 280.123 123.618 307.423C123.618 307.423 127.508 300.602 146.791 297.626V291.249C146.791 291.249 130.714 288.421 130.923 267.395C130.923 267.395 131.031 243.127 143.372 238.524L144.509 229.586Z" fill="#432918"/>
<path d="M160.688 229.586C160.688 229.586 179.998 228.613 183.253 255.487C183.253 255.487 183.629 279.337 181.677 307.694C181.677 307.694 176.322 300.048 158.406 297.626V291.249C158.406 291.249 174.479 288.421 174.272 267.395C174.272 267.395 174.169 243.127 161.823 238.524L160.688 229.586Z" fill="#432918"/>
<path d="M149.966 255.488L152.364 243.45V255.488H164.282L166.257 247.014L168.313 255.488H183.253C183.253 246.911 181.677 240.006 181.677 240.006C181.677 240.006 177.7 221.28 149.655 222.934C149.655 222.934 126.025 222.934 124.314 255.489H149.966V255.488Z" fill="#432918"/>
</g>
<path d="M144.817 8.166C144.817 12.675 141.163 16.331 136.652 16.331C132.143 16.331 128.487 12.675 128.487 8.166C128.487 3.655 132.143 0 136.652 0C141.163 0 144.817 3.655 144.817 8.166Z" fill="#1DB2A8"/>
<path d="M158.186 27.0753C158.186 30.1613 155.684 32.6643 152.597 32.6643C149.511 32.6643 147.008 30.1613 147.008 27.0753C147.008 23.9873 149.511 21.4863 152.597 21.4863C155.684 21.4863 158.186 23.9873 158.186 27.0753Z" fill="#E74645"/>
<path d="M179.262 9.78C179.262 15.181 174.882 19.56 169.477 19.56C164.08 19.56 159.702 15.181 159.702 9.78C159.702 4.378 164.08 0 169.477 0C174.882 0 179.262 4.377 179.262 9.78Z" fill="#F9B233"/>
<path d="M281.249 106.137C285.266 106.137 288.522 109.394 288.522 113.411C288.522 117.43 285.265 120.685 281.249 120.685C277.231 120.685 273.976 117.429 273.976 113.411C273.976 109.394 277.231 106.137 281.249 106.137Z" fill="#1DB2A8"/>
<path d="M298.092 94.2285C300.839 94.2285 303.069 96.4575 303.069 99.2075C303.069 101.957 300.84 104.186 298.092 104.186C295.343 104.186 293.113 101.957 293.113 99.2075C293.114 96.4585 295.343 94.2285 298.092 94.2285Z" fill="#E74645"/>
<path d="M282.686 75.457C287.499 75.457 291.4 79.359 291.4 84.171C291.4 88.981 287.5 92.879 282.686 92.879C277.876 92.879 273.976 88.981 273.976 84.171C273.976 79.359 277.877 75.457 282.686 75.457Z" fill="#F9B233"/>
<path d="M16.871 111.088C20.432 112.945 21.811 117.337 19.956 120.901C18.099 124.462 13.706 125.845 10.144 123.988C6.58105 122.131 5.20004 117.738 7.05804 114.176C8.91604 110.612 13.307 109.229 16.871 111.088Z" fill="#1DB2A8"/>
<path d="M37.3091 108.314C39.7471 109.585 40.6941 112.593 39.4211 115.03C38.1511 117.468 35.1451 118.413 32.7061 117.142C30.2691 115.871 29.3211 112.865 30.5931 110.427C31.8651 107.989 34.8731 107.044 37.3091 108.314Z" fill="#E74645"/>
<path d="M32.3321 84.5475C36.5971 86.7705 38.2511 92.0335 36.0261 96.3015C33.8011 100.568 28.5411 102.22 24.2761 99.9955C20.0091 97.7705 18.3521 92.5115 20.5771 88.2455C22.8001 83.9785 28.0621 82.3225 32.3321 84.5475Z" fill="#F9B233"/>
<path d="M73.4 279.365C76.91 277.409 81.337 278.669 83.294 282.178C85.249 285.688 83.99 290.117 80.482 292.074C76.972 294.03 72.5439 292.768 70.5869 289.26C68.6309 285.75 69.889 281.321 73.4 279.365Z" fill="#1DB2A8"/>
<path d="M82.3149 260.764C84.7149 259.425 87.7489 260.287 89.0849 262.691C90.4249 265.091 89.5629 268.121 87.1609 269.461C84.7609 270.799 81.7249 269.938 80.3899 267.536C79.0499 265.136 79.9119 262.1 82.3149 260.764Z" fill="#E74645"/>
<path d="M59.721 251.865C63.922 249.523 69.23 251.032 71.572 255.234C73.913 259.438 72.404 264.741 68.204 267.084C63.999 269.425 58.697 267.919 56.353 263.718C54.009 259.514 55.517 254.206 59.721 251.865Z" fill="#F9B233"/>
<path d="M229.296 269.105C231.256 272.614 229.993 277.041 226.485 278.999C222.975 280.953 218.544 279.694 216.59 276.186C214.634 272.676 215.894 268.247 219.4 266.291C222.913 264.336 227.342 265.592 229.296 269.105Z" fill="#1DB2A8"/>
<path d="M247.899 278.021C249.239 280.421 248.375 283.454 245.971 284.791C243.57 286.131 240.542 285.27 239.202 282.866C237.863 280.466 238.725 277.432 241.124 276.097C243.527 274.757 246.562 275.618 247.899 278.021Z" fill="#E74645"/>
<path d="M256.797 255.425C259.141 259.627 257.632 264.933 253.428 267.276C249.223 269.618 243.921 268.109 241.579 263.908C239.236 259.704 240.744 254.4 244.946 252.058C249.145 249.714 254.456 251.222 256.797 255.425Z" fill="#F9B233"/>
<path d="M217.956 330.158C216.295 330.158 214.799 329.818 213.468 329.138C212.137 328.458 211.003 327.509 210.067 326.288C209.131 325.068 208.412 323.614 207.911 321.925C207.41 320.237 207.159 318.384 207.159 316.367C207.159 315.297 207.237 314.199 207.393 313.074C207.549 311.949 207.786 310.826 208.103 309.706C208.421 308.586 208.816 307.489 209.29 306.413C209.764 305.338 210.315 304.321 210.945 303.363C211.574 302.405 212.28 301.522 213.059 300.713C213.839 299.905 214.7 299.209 215.641 298.624C216.583 298.039 217.597 297.582 218.684 297.253C219.77 296.924 220.937 296.76 222.185 296.76C223.857 296.76 225.352 297.061 226.673 297.663C227.993 298.265 229.108 299.106 230.016 300.187C230.924 301.268 231.621 302.558 232.105 304.057C232.59 305.556 232.832 307.207 232.832 309.013C232.832 310.506 232.685 312.063 232.389 313.685C232.094 315.306 231.662 316.9 231.094 318.465C230.526 320.031 229.818 321.521 228.972 322.936C228.125 324.352 227.15 325.594 226.047 326.664C224.944 327.734 223.715 328.583 222.361 329.213C221.006 329.843 219.538 330.158 217.956 330.158ZM218.357 326.079C219.249 326.079 220.079 325.906 220.848 325.561C221.617 325.216 222.322 324.742 222.962 324.14C223.603 323.538 224.188 322.833 224.717 322.026C225.246 321.218 225.717 320.352 226.129 319.426C226.541 318.501 226.9 317.543 227.207 316.551C227.514 315.559 227.767 314.579 227.968 313.609C228.169 312.64 228.316 311.707 228.411 310.81C228.506 309.913 228.553 309.097 228.553 308.361C228.553 307.292 228.436 306.286 228.202 305.344C227.968 304.403 227.614 303.584 227.141 302.887C226.667 302.191 226.071 301.642 225.352 301.24C224.633 300.839 223.795 300.638 222.836 300.638C221.811 300.638 220.819 300.886 219.861 301.382C218.903 301.878 218 302.547 217.153 303.388C216.306 304.23 215.532 305.204 214.83 306.313C214.128 307.422 213.526 308.589 213.025 309.815C212.524 311.041 212.133 312.289 211.855 313.559C211.576 314.829 211.437 316.044 211.437 317.202C211.437 318.462 211.596 319.634 211.913 320.721C212.231 321.808 212.687 322.746 213.284 323.538C213.88 324.329 214.604 324.95 215.457 325.401C216.31 325.854 217.276 326.079 218.357 326.079Z" fill="#00B1C3"/>
<path d="M234.972 323.455C234.972 322.72 235.016 321.87 235.106 320.906C235.195 319.942 235.306 318.962 235.44 317.964C235.574 316.967 235.724 316.006 235.892 315.081C236.059 314.156 236.22 313.365 236.376 312.707C236.498 312.194 236.735 311.766 237.086 311.42C237.437 311.075 237.914 310.902 238.515 310.902C239.117 310.902 239.535 311.086 239.768 311.453C240.002 311.821 240.119 312.311 240.119 312.924C240.119 313.091 240.102 313.317 240.069 313.601C240.035 313.885 239.994 314.197 239.944 314.537C239.894 314.877 239.841 315.228 239.785 315.59C239.729 315.952 239.676 316.287 239.626 316.593C239.576 316.9 239.534 317.167 239.501 317.395C239.467 317.623 239.451 317.777 239.451 317.855H239.786C239.853 317.732 239.958 317.535 240.103 317.261C240.248 316.988 240.415 316.674 240.604 316.317C240.793 315.96 240.997 315.584 241.214 315.188C241.431 314.793 241.634 314.414 241.824 314.052C242.013 313.69 242.186 313.369 242.342 313.091C242.498 312.813 242.615 312.607 242.693 312.473C243.05 311.871 243.456 311.459 243.913 311.236C244.37 311.013 244.877 310.902 245.434 310.902C245.991 310.902 246.434 311.136 246.763 311.604C247.092 312.072 247.256 312.718 247.256 313.543C247.256 313.665 247.231 313.872 247.181 314.161C247.131 314.451 247.066 314.796 246.989 315.198C246.911 315.599 246.825 316.039 246.73 316.518C246.635 316.997 246.549 317.487 246.471 317.989C246.393 318.49 246.329 318.986 246.279 319.477C246.229 319.968 246.204 320.419 246.204 320.831C246.204 321.522 246.29 322.09 246.463 322.536C246.635 322.982 246.906 323.204 247.274 323.204C247.441 323.204 247.633 323.154 247.851 323.054C248.068 322.953 248.302 322.822 248.553 322.661C248.803 322.5 249.06 322.313 249.322 322.101C249.584 321.889 249.843 321.672 250.099 321.449C250.69 320.925 251.308 320.335 251.954 319.677L252.238 323.421L251.402 324.056C250.945 324.401 250.48 324.747 250.007 325.092C249.533 325.438 249.04 325.747 248.527 326.02C248.014 326.293 247.48 326.516 246.923 326.688C246.366 326.861 245.78 326.947 245.168 326.947C244.555 326.947 244.04 326.504 243.622 325.618C243.204 324.732 242.995 323.436 242.995 321.731C242.995 321.062 243.039 320.341 243.129 319.566C243.218 318.792 243.33 317.959 243.464 317.067H243.196L238.817 325.758C238.594 326.216 238.343 326.527 238.065 326.694C237.786 326.861 237.463 326.945 237.095 326.945C236.638 326.945 236.27 326.847 235.992 326.652C235.713 326.457 235.499 326.195 235.348 325.866C235.198 325.537 235.098 325.164 235.047 324.746C234.997 324.333 234.972 323.9 234.972 323.455Z" fill="#00B1C3"/>
<path d="M254.195 326.948C253.593 326.948 253.033 326.683 252.515 326.154C251.997 325.625 251.546 324.914 251.161 324.023C250.777 323.132 250.476 322.098 250.259 320.922C250.042 319.747 249.933 318.512 249.933 317.22C249.933 316.228 250.005 315.15 250.15 313.986C250.295 312.822 250.506 311.621 250.785 310.384C251.063 309.147 251.395 307.904 251.78 306.656C252.164 305.408 252.599 304.21 253.084 303.062C253.569 301.914 254.095 300.842 254.664 299.844C255.232 298.847 255.828 297.978 256.453 297.237C257.077 296.496 257.729 295.914 258.409 295.49C259.089 295.067 259.78 294.855 260.482 294.855C260.961 294.855 261.356 294.963 261.669 295.181C261.981 295.398 262.226 295.685 262.404 296.042C262.582 296.399 262.707 296.803 262.78 297.254C262.852 297.705 262.889 298.165 262.889 298.633C262.889 299.681 262.769 300.748 262.53 301.834C262.29 302.92 261.967 304.013 261.56 305.11C261.153 306.208 260.683 307.308 260.147 308.411C259.612 309.515 259.055 310.609 258.476 311.696C257.896 312.782 257.314 313.852 256.729 314.905C256.144 315.958 255.595 316.986 255.082 317.989C255.026 318.101 254.968 318.246 254.906 318.424C254.845 318.603 254.786 318.795 254.731 319.001C254.675 319.208 254.62 319.427 254.564 319.662C254.508 319.896 254.463 320.124 254.43 320.347V320.581C254.43 320.871 254.46 321.152 254.522 321.425C254.583 321.698 254.658 321.943 254.748 322.16C254.837 322.377 254.932 322.551 255.032 322.678C255.132 322.806 255.227 322.87 255.316 322.87C255.527 322.87 255.77 322.826 256.043 322.736C256.316 322.647 256.606 322.528 256.912 322.377C257.219 322.227 257.533 322.054 257.857 321.859C258.18 321.664 258.492 321.466 258.793 321.266C259.495 320.798 260.231 320.258 260.999 319.644L262.37 323.154C261.378 323.867 260.398 324.503 259.428 325.06C259.005 325.294 258.567 325.525 258.116 325.753C257.665 325.982 257.211 326.185 256.754 326.363C256.297 326.541 255.852 326.683 255.417 326.789C254.98 326.896 254.573 326.948 254.195 326.948ZM254.211 313.576C254.712 312.684 255.244 311.681 255.807 310.567C256.37 309.453 256.902 308.305 257.403 307.124C257.904 305.943 258.339 304.765 258.707 303.589C259.075 302.414 259.309 301.318 259.409 300.304C259.409 299.981 259.401 299.705 259.384 299.477C259.367 299.248 259.314 299.134 259.225 299.134C258.901 299.134 258.553 299.343 258.18 299.761C257.806 300.179 257.433 300.744 257.06 301.457C256.687 302.17 256.33 303.001 255.991 303.948C255.651 304.895 255.347 305.904 255.08 306.973C254.813 308.043 254.601 309.143 254.445 310.274C254.289 311.406 254.211 312.506 254.211 313.576Z" fill="#00B1C3"/>
<path d="M270.241 323.388C269.84 323.756 269.341 324.149 268.745 324.567C268.149 324.985 267.505 325.369 266.814 325.72C266.123 326.071 265.418 326.364 264.7 326.597C263.981 326.831 263.299 326.948 262.653 326.948C262.073 326.948 261.586 326.867 261.19 326.706C260.794 326.544 260.474 326.319 260.229 326.029C259.984 325.739 259.808 325.385 259.703 324.968C259.597 324.55 259.544 324.09 259.544 323.589C259.544 322.887 259.625 322.071 259.787 321.14C259.948 320.21 260.146 319.246 260.38 318.248C260.614 317.251 260.862 316.256 261.124 315.264C261.386 314.273 261.617 313.359 261.818 312.523C261.896 312.233 262.052 311.986 262.286 311.779C262.52 311.573 262.785 311.406 263.08 311.278C263.375 311.15 263.682 311.055 263.999 310.994C264.317 310.933 264.603 310.902 264.86 310.902C265.328 310.902 265.646 310.989 265.813 311.161C265.98 311.334 266.063 311.565 266.063 311.855C266.063 312.1 266.007 312.454 265.896 312.917C265.784 313.379 265.645 313.903 265.478 314.488C265.311 315.073 265.132 315.702 264.943 316.377C264.753 317.051 264.575 317.726 264.408 318.399C264.241 319.073 264.101 319.731 263.99 320.372C263.879 321.013 263.823 321.589 263.823 322.102C263.823 322.603 263.879 323.002 263.99 323.297C264.101 323.592 264.33 323.74 264.676 323.74C265.077 323.74 265.523 323.601 266.013 323.323C266.503 323.044 266.999 322.707 267.501 322.311C268.002 321.916 268.493 321.506 268.972 321.082C269.451 320.659 269.875 320.296 270.243 319.996V323.388H270.241ZM262.769 306.205C262.769 305.949 262.825 305.66 262.937 305.336C263.048 305.013 263.23 304.71 263.48 304.425C263.731 304.141 264.065 303.901 264.483 303.706C264.901 303.511 265.422 303.414 266.046 303.414C266.436 303.414 266.803 303.458 267.149 303.548C267.494 303.637 267.795 303.774 268.052 303.957C268.308 304.141 268.511 304.383 268.662 304.684C268.812 304.985 268.888 305.342 268.888 305.754C268.888 306.133 268.827 306.501 268.704 306.857C268.581 307.214 268.386 307.531 268.119 307.81C267.851 308.089 267.514 308.314 267.108 308.487C266.701 308.66 266.213 308.746 265.645 308.746C264.665 308.746 263.94 308.514 263.472 308.052C263.003 307.589 262.769 306.974 262.769 306.205Z" fill="#00B1C3"/>
<path d="M269.054 323.455C269.054 322.72 269.098 321.87 269.188 320.906C269.277 319.942 269.388 318.962 269.522 317.964C269.656 316.967 269.806 316.006 269.974 315.081C270.141 314.156 270.302 313.365 270.458 312.707C270.58 312.194 270.817 311.766 271.168 311.42C271.519 311.075 271.996 310.902 272.597 310.902C273.199 310.902 273.617 311.086 273.85 311.453C274.084 311.821 274.201 312.311 274.201 312.924C274.201 313.091 274.184 313.317 274.151 313.601C274.117 313.885 274.076 314.197 274.026 314.537C273.976 314.877 273.923 315.228 273.867 315.59C273.811 315.952 273.758 316.287 273.708 316.593C273.658 316.9 273.616 317.167 273.583 317.395C273.549 317.623 273.533 317.777 273.533 317.855H273.867C273.934 317.732 274.039 317.535 274.184 317.261C274.329 316.988 274.496 316.674 274.685 316.317C274.874 315.96 275.078 315.584 275.295 315.188C275.512 314.793 275.715 314.414 275.905 314.052C276.094 313.69 276.267 313.369 276.423 313.091C276.579 312.813 276.696 312.607 276.774 312.473C277.13 311.871 277.537 311.459 277.994 311.236C278.451 311.013 278.958 310.902 279.515 310.902C280.072 310.902 280.515 311.136 280.844 311.604C281.173 312.072 281.337 312.718 281.337 313.543C281.337 313.665 281.312 313.872 281.262 314.161C281.212 314.451 281.147 314.796 281.07 315.198C280.992 315.599 280.905 316.039 280.811 316.518C280.716 316.997 280.63 317.487 280.552 317.989C280.474 318.49 280.41 318.986 280.36 319.477C280.31 319.968 280.285 320.419 280.285 320.831C280.285 321.522 280.371 322.09 280.544 322.536C280.716 322.982 280.987 323.204 281.354 323.204C281.521 323.204 281.713 323.154 281.931 323.054C282.148 322.953 282.382 322.822 282.633 322.661C282.883 322.5 283.14 322.313 283.402 322.101C283.664 321.889 283.923 321.672 284.179 321.449C284.77 320.925 285.388 320.335 286.034 319.677L286.318 323.421L285.482 324.056C285.025 324.401 284.56 324.747 284.086 325.092C283.612 325.438 283.119 325.747 282.607 326.02C282.094 326.293 281.56 326.516 281.002 326.688C280.445 326.861 279.86 326.947 279.247 326.947C278.634 326.947 278.119 326.504 277.701 325.618C277.283 324.732 277.074 323.436 277.074 321.731C277.074 321.062 277.118 320.341 277.208 319.566C277.297 318.792 277.409 317.959 277.542 317.067H277.274L272.895 325.758C272.672 326.216 272.421 326.527 272.143 326.694C271.864 326.861 271.541 326.945 271.173 326.945C270.716 326.945 270.348 326.847 270.07 326.652C269.791 326.457 269.577 326.195 269.426 325.866C269.276 325.537 269.176 325.164 269.125 324.746C269.079 324.333 269.054 323.9 269.054 323.455Z" fill="#00B1C3"/>
<path d="M290.198 326.949C289.151 326.949 288.234 326.76 287.449 326.381C286.663 326.002 286.009 325.492 285.485 324.852C284.961 324.211 284.568 323.47 284.306 322.629C284.044 321.788 283.913 320.905 283.913 319.98C283.913 319.356 283.974 318.696 284.097 317.999C284.22 317.303 284.407 316.62 284.657 315.952C284.908 315.284 285.222 314.646 285.601 314.038C285.98 313.431 286.423 312.896 286.93 312.433C287.437 311.971 288.005 311.603 288.635 311.33C289.264 311.057 289.964 310.92 290.733 310.92C291.357 310.92 291.937 311.02 292.471 311.221C293.006 311.422 293.471 311.703 293.867 312.065C294.263 312.427 294.571 312.865 294.795 313.377C295.018 313.89 295.13 314.463 295.13 315.099C295.13 315.79 294.96 316.481 294.62 317.172C294.28 317.863 293.809 318.515 293.207 319.128C292.605 319.741 291.889 320.287 291.059 320.766C290.229 321.245 289.329 321.619 288.36 321.886C288.527 322.187 288.692 322.437 288.853 322.638C289.014 322.839 289.179 322.995 289.346 323.106C289.513 323.217 289.689 323.295 289.873 323.34C290.057 323.384 290.254 323.407 290.466 323.407C291.134 323.407 291.839 323.273 292.58 323.006C293.321 322.738 294.043 322.404 294.745 322.003C295.447 321.602 296.11 321.165 296.734 320.691C297.358 320.217 297.887 319.769 298.322 319.345L300.478 321.585C299.498 322.599 298.456 323.497 297.353 324.276C296.873 324.61 296.358 324.939 295.807 325.262C295.256 325.585 294.676 325.872 294.069 326.122C293.462 326.373 292.832 326.574 292.18 326.724C291.527 326.874 290.867 326.949 290.198 326.949ZM287.975 319.093C288.376 319.093 288.813 318.99 289.288 318.783C289.761 318.577 290.201 318.313 290.608 317.989C291.015 317.666 291.358 317.315 291.636 316.936C291.915 316.557 292.054 316.189 292.054 315.833C292.054 315.331 291.962 314.919 291.778 314.596C291.594 314.273 291.369 314.111 291.101 314.111C290.622 314.111 290.212 314.2 289.873 314.379C289.533 314.557 289.248 314.789 289.02 315.073C288.792 315.357 288.607 315.681 288.468 316.042C288.329 316.404 288.223 316.769 288.151 317.137C288.078 317.505 288.031 317.861 288.009 318.206C287.987 318.553 287.975 318.848 287.975 319.093Z" fill="#00B1C3"/>
<path d="M188.813 345.301C188.211 347.908 187.183 349.867 185.729 351.176C184.275 352.485 182.394 353.14 180.087 353.14C177.045 353.14 174.696 352.028 173.042 349.805C171.387 347.582 170.56 344.426 170.56 340.336C170.56 336.358 171.393 333.235 173.059 330.967C174.724 328.7 176.995 327.566 179.87 327.566C182.165 327.566 184.026 328.188 185.453 329.43C186.879 330.673 187.848 332.514 188.361 334.954L185.871 335.606C185.481 333.756 184.79 332.341 183.798 331.36C182.806 330.38 181.58 329.889 180.121 329.889C177.948 329.889 176.273 330.803 175.098 332.631C173.922 334.459 173.334 337.06 173.334 340.437C173.334 343.736 173.93 346.282 175.123 348.076C176.315 349.87 178.004 350.767 180.188 350.767C181.804 350.767 183.144 350.246 184.208 349.204C185.272 348.162 185.971 346.678 186.306 344.749L188.813 345.301Z" fill="#363D46"/>
<path d="M190.836 343.747C190.836 340.816 191.488 338.543 192.792 336.927C194.096 335.312 195.929 334.504 198.291 334.504C200.653 334.504 202.489 335.312 203.799 336.927C205.108 338.543 205.763 340.816 205.763 343.747C205.763 346.689 205.108 348.971 203.799 350.592C202.489 352.214 200.654 353.024 198.291 353.024C195.928 353.024 194.096 352.213 192.792 350.592C191.487 348.971 190.836 346.689 190.836 343.747ZM193.36 343.747C193.36 346.087 193.783 347.873 194.631 349.104C195.478 350.335 196.698 350.951 198.292 350.951C199.874 350.951 201.086 350.336 201.928 349.104C202.769 347.873 203.19 346.098 203.19 343.78C203.19 341.451 202.772 339.676 201.937 338.456C201.101 337.236 199.886 336.626 198.293 336.626C196.699 336.626 195.479 337.236 194.632 338.456C193.783 339.677 193.36 341.44 193.36 343.747Z" fill="#363D46"/>
<path d="M209.623 352.723V334.821H211.913V337.529C212.916 336.459 213.874 335.688 214.788 335.214C215.702 334.741 216.693 334.504 217.763 334.504C218.867 334.504 219.78 334.76 220.504 335.273C221.229 335.786 221.752 336.538 222.075 337.53C223.067 336.471 224.031 335.702 224.967 335.223C225.903 334.744 226.917 334.504 228.009 334.504C229.469 334.504 230.597 334.936 231.394 335.799C232.19 336.662 232.589 337.885 232.589 339.468V352.723H230.132V340.27C230.132 338.989 229.912 338.066 229.472 337.503C229.032 336.94 228.316 336.659 227.324 336.659C226.422 336.659 225.561 336.882 224.742 337.327C223.923 337.773 223.107 338.452 222.293 339.366V352.721H219.919V340.335C219.919 339.043 219.696 338.107 219.25 337.527C218.804 336.947 218.08 336.658 217.077 336.658C216.197 336.658 215.358 336.872 214.561 337.301C213.764 337.73 212.936 338.418 212.078 339.365V352.72H209.623V352.723Z" fill="#363D46"/>
<path d="M238.005 352.723V334.821H240.295V337.529C241.298 336.459 242.256 335.688 243.17 335.214C244.084 334.741 245.075 334.504 246.145 334.504C247.248 334.504 248.162 334.76 248.886 335.273C249.611 335.786 250.134 336.538 250.457 337.53C251.449 336.471 252.413 335.702 253.349 335.223C254.285 334.744 255.299 334.504 256.391 334.504C257.85 334.504 258.979 334.936 259.776 335.799C260.572 336.662 260.971 337.885 260.971 339.468V352.723H258.513V340.27C258.513 338.989 258.293 338.066 257.853 337.503C257.413 336.94 256.697 336.659 255.705 336.659C254.803 336.659 253.942 336.882 253.123 337.327C252.304 337.773 251.488 338.452 250.674 339.366V352.721H248.302V340.335C248.302 339.043 248.079 338.107 247.634 337.527C247.188 336.947 246.464 336.658 245.461 336.658C244.581 336.658 243.742 336.872 242.945 337.301C242.148 337.73 241.32 338.418 240.463 339.365V352.72H238.005V352.723Z" fill="#363D46"/>
<path d="M279.158 334.82V352.722H276.902V350.014C275.922 351.051 274.946 351.811 273.977 352.296C273.007 352.781 271.993 353.023 270.935 353.023C269.453 353.023 268.308 352.591 267.5 351.728C266.692 350.865 266.288 349.642 266.288 348.059V334.821H268.745V347.14C268.745 348.477 268.971 349.433 269.422 350.007C269.874 350.581 270.606 350.868 271.62 350.868C272.5 350.868 273.358 350.648 274.194 350.208C275.03 349.768 275.859 349.091 276.684 348.177V334.822H279.158V334.82Z" fill="#363D46"/>
<path d="M284.808 352.723V334.821H287.098V337.529C288.078 336.492 289.048 335.729 290.006 335.239C290.964 334.749 291.967 334.504 293.015 334.504C294.508 334.504 295.659 334.939 296.467 335.808C297.275 336.677 297.679 337.897 297.679 339.469V352.724H295.255V340.405C295.255 339.068 295.029 338.11 294.578 337.53C294.127 336.95 293.394 336.661 292.38 336.661C291.488 336.661 290.619 336.886 289.772 337.338C288.925 337.789 288.089 338.466 287.265 339.369V352.724H284.808V352.723Z" fill="#363D46"/>
<path d="M303.128 330.994V327.969H306.07V330.994H303.128ZM303.328 352.723V334.821H305.869V352.723H303.328Z" fill="#363D46"/>
<path d="M318.739 350.567V352.656C318.371 352.778 317.972 352.87 317.544 352.932C317.115 352.993 316.633 353.024 316.098 353.024C314.749 353.024 313.733 352.734 313.047 352.155C312.362 351.576 312.019 350.707 312.019 349.548V336.945H309.361V334.822H312.019V329.039H314.626V334.822H318.705V336.945H314.626V348.411C314.626 349.436 314.788 350.097 315.111 350.392C315.434 350.687 316.058 350.835 316.983 350.835C317.429 350.835 317.986 350.752 318.654 350.584L318.739 350.567Z" fill="#363D46"/>
<path d="M326.11 352.423L319.658 334.822H322.198L327.396 349.13L332.06 334.822H334.584L328.466 353.025C327.631 355.477 326.741 357.128 325.8 357.981C324.858 358.834 323.58 359.26 321.964 359.26C321.685 359.26 321.412 359.243 321.145 359.21C320.878 359.177 320.621 359.126 320.376 359.06L320.393 356.77C320.649 356.826 320.897 356.868 321.137 356.895C321.377 356.923 321.591 356.937 321.78 356.937C323.006 356.937 323.939 356.602 324.58 355.934C325.222 355.264 325.732 354.094 326.11 352.423Z" fill="#363D46"/>
</svg>
