<svg width="1790" height="526" viewBox="0 0 1790 526" fill="none" xmlns="http://www.w3.org/2000/svg">
<path d="M0.422852 525.091V-0.0078125H151.389V52.5021H66.0602V223.159H138.261V275.669H66.0602V459.454H151.389V525.091H0.422852ZM238.358 525.091V-0.0078125H297.432L366.351 328.179H372.915L441.834 -0.0078125H500.908V525.091H435.27V262.542L388.668 525.091H349.285L303.996 262.542V525.091H238.358ZM607.568 525.091V-0.0078125H713.901C781.507 -0.0078125 799.229 41.3437 804.48 140.456V161.46C799.229 260.573 781.507 301.924 713.901 301.924H673.206V525.091H607.568ZM673.206 249.414H713.901C733.592 249.414 740.812 233.005 743.438 161.46V140.456C740.812 68.9114 733.592 52.5021 713.901 52.5021H673.206V249.414ZM891.45 525.091V-0.0078125H957.087V525.091H891.45ZM1063.75 525.091V-0.0078125H1170.08C1237.69 -0.0078125 1260.66 41.3437 1260.66 120.765C1260.66 192.31 1252.13 233.005 1231.78 252.696V256.634C1248.85 262.542 1254.1 293.391 1260.66 370.187L1273.79 525.091H1208.15L1199.62 370.187C1195.02 292.078 1183.21 275.669 1163.52 275.669H1129.39V525.091H1063.75ZM1129.39 223.159H1170.08C1193.05 223.159 1199.62 200.186 1199.62 120.765C1199.62 68.9114 1189.77 52.5021 1170.08 52.5021H1129.39V223.159ZM1367.32 525.091V-0.0078125H1518.29V52.5021H1432.96V223.159H1505.16V275.669H1432.96V459.454H1518.29V525.091H1367.32ZM1585.56 525.091L1651.2 261.229L1592.13 -0.0078125H1657.77L1684.02 183.777H1690.58L1716.84 -0.0078125H1782.48L1723.4 243.507L1789.04 525.091H1723.4L1690.58 339.337H1684.02L1651.2 525.091H1585.56Z" fill="white"/>
</svg>
